# ProBuilder 4.2.3
# https://unity3d.com/unity/features/worldbuilding/probuilder
# 3/23/2020 10:11:28 PM

mtllib ./Prism3x1x2.5.mtl
o Prism3x1x2.5

g Prism3x1x2.5
v 0 0 0
v -3 0 0
v -1.5 1 0
v -3 0 3
v -1.5 1 3
v 0 0 3

vt 0 0
vt 3 0
vt 1.5 1
vt 2.496151 0
vt 2.496151 3
vt 0.6933752 0
vt 0.6933752 3
vt -3 0
vt -1.5 1
vt 0 3
vt 1.802776 3
vt 1.802776 0
vt -3 3

vn 0 0 -1
vn -0.5547002 0.8320503 0
vn 0 0 1
vn 0.5547002 0.8320503 0
vn 0 -1 0

usemtl ProBuilderDefault
f 1/1/1 2/2/1 3/3/1
f 4/8/3 6/1/3 5/9/3
f 3/6/2 2/4/2 4/5/2
f 4/5/2 5/7/2 3/6/2
f 5/11/4 6/10/4 1/1/4
f 1/1/4 3/12/4 5/11/4
f 4/13/5 2/8/5 1/1/5
f 1/1/5 6/10/5 4/13/5

