# ProBuilder 4.2.3
# https://unity3d.com/unity/features/worldbuilding/probuilder
# 3/23/2020 7:49:55 PM

mtllib ./col1.mtl
o col1

g col1
v 3.1 4.5 6
v 3.072 4.5 6
v 3.086 4.5 6.038
v 3.072 4.477 6
v 3.086 4.477 6.038
v 3.1 4.477 6

vt 0 0
vt 2.8 0
vt 1.4 3.8
vt 0 -0.9679749
vt 2.3 -0.9679749
vt 0 3.081716
vt 2.3 3.081716
vt -2.8 0
vt -1.4 3.8
vt -2.3 0
vt -2.3 4.049691
vt 0 4.049691
vt 0 2.3
vt -2.8 2.3

vn 0 1 0
vn -0.938342 0 0.3457084
vn 0 -1 -1.254831E-05
vn 0.9383439 0 0.3457032
vn 0 0 -1

usemtl Collider
f 1/1/1 2/2/1 3/3/1
f 4/8/3 6/1/3 5/9/3
f 3/6/2 2/4/2 4/5/2
f 4/5/2 5/7/2 3/6/2
f 5/11/4 6/10/4 1/1/4
f 1/1/4 3/12/4 5/11/4
f 4/14/5 2/8/5 1/1/5
f 1/1/5 6/13/5 4/14/5

