# ProBuilder 4.2.3
# https://unity3d.com/unity/features/worldbuilding/probuilder
# 4/8/2020 5:16:44 PM

mtllib ./WholeCakeCollider.mtl
o WholeCakeCollider

g WholeCakeCollider
v 0 0 0
v 0 2.5 0
v -2 0 -3.464102
v -2 2.5 -3.464102
v -2.828427 0 -2.828428
v -2.828427 2.5 -2.828428
v -3.464102 0 -2.000001
v -3.464102 2.5 -2.000001
v -3.863704 0 -1.035277
v -3.863704 2.5 -1.035277
v -4 0 -4.768372E-07
v -4 2.5 -4.768372E-07
v -3.863704 0 1.035276
v -3.863704 2.5 1.035276
v -3.464102 0 2
v -3.464102 2.5 2
v -2.828428 0 2.828427
v -2.828428 2.5 2.828427
v -2.000001 0 3.464102
v -2.000001 2.5 3.464102
v -1.035277 0 3.863703
v -1.035277 2.5 3.863703
v -1.27146E-07 0 4
v -1.27146E-07 2.5 4
v 1.035276 0 3.863704
v 1.035276 2.5 3.863704
v 2 0 3.464102
v 2 2.5 3.464102
v 2.828427 0 2.828428
v 2.828427 2.5 2.828428
v 3.464102 0 2
v 3.464102 2.5 2
v 3.863704 0 1.035277
v 3.863704 2.5 1.035277
v 4 0 4.768372E-07
v 4 2.5 4.768372E-07
v 3.863704 0 -1.035275
v 3.863704 2.5 -1.035275
v 3.464103 0 -2
v 3.464103 2.5 -2
v 2.828428 0 -2.828427
v 2.828428 2.5 -2.828427
v 2.000001 0 -3.464102
v 2.000001 2.5 -3.464102

vt -3.464102 0
vt -3.464102 2.5
vt 0.5358984 0
vt 0.5358984 2.5
vt 1.912941 0
vt 1.912941 2.5
vt 2.957151 0
vt 2.957151 2.5
vt 2.651309 0
vt 2.651309 2.5
vt 3.695518 0
vt 3.695518 2.5
vt 3.173413 0
vt 3.173413 2.5
vt 4.217623 0
vt 4.217623 2.5
vt 3.443675 0
vt 3.443675 2.5
vt 4.487885 0
vt 4.487885 2.5
vt 1.008628 0
vt 1.008628 2.5
vt 2.052837 0
vt 2.052837 2.5
vt -6.719059E-07 0
vt -6.719059E-07 2.5
vt 1.04421 0
vt 1.04421 2.5
vt -1.04421 0
vt -1.04421 2.5
vt -2.052838 0
vt -2.052838 2.5
vt -1.008628 0
vt -1.008628 2.5
vt -2.957151 0
vt -2.957151 2.5
vt -1.912942 0
vt -1.912942 2.5
vt -3.695519 0
vt -3.695519 2.5
vt -2.651308 0
vt -2.651308 2.5
vt -4.217622 0
vt -4.217622 2.5
vt -3.173413 0
vt -3.173413 2.5
vt -4.487885 0
vt -4.487885 2.5
vt -3.443675 0
vt -3.443675 2.5
vt -0.5358989 0
vt -0.5358989 2.5
vt 3.464101 0
vt 3.464101 2.5
vt 0.5358984 2
vt 4 0
vt 1.171573 2.828427
vt -0.5358984 2
vt -4 0
vt -1.171573 2.828427
vt 2 3.464102
vt -2 3.464102
vt 2.964724 3.863703
vt -2.964724 3.863703
vt 4 4
vt -4 4
vt 5.035276 3.863703
vt -5.035276 3.863703
vt 6 3.464102
vt -6 3.464102
vt 6.828427 2.828427
vt -6.828427 2.828427
vt 7.464102 2
vt -7.464102 2
vt 7.863703 1.035277
vt -7.863703 1.035277
vt 8 -3.496911E-07
vt -8 -3.496911E-07
vt 7.863703 -1.035276
vt -7.863703 -1.035276
vt 7.464102 -2
vt -7.464102 -2
vt 6.828427 -2.828427
vt -6.828427 -2.828427
vt 6 -3.464102
vt -6 -3.464102
vt 5.035276 -3.863703
vt -5.035276 -3.863703
vt 4 -4
vt -4 -4
vt 2.964724 -3.863703
vt -2.964724 -3.863703
vt 2 -3.464102
vt -2 -3.464102
vt 1.171573 -2.828428
vt -1.171573 -2.828428
vt 0.5358987 -2.000001
vt -0.5358987 -2.000001

vn 1.788139E-07 0 -1
vn 0.1950903 0 -0.9807853
vn -0.7071066 0 -0.7071069
vn -0.8660253 0 -0.5000002
vn -0.9659258 0 -0.2588191
vn -1 0 0
vn -0.9659258 0 0.258819
vn -0.8660254 0 0.4999999
vn -0.7071071 0 0.7071065
vn -0.5000002 0 0.8660253
vn -0.258819 0 0.9659258
vn -6.011897E-08 0 1
vn 0.258819 0 0.9659258
vn 0.4999999 0 0.8660255
vn 0.7071066 0 0.7071069
vn 0.8660253 0 0.5000002
vn 0.9659258 0 0.2588191
vn 1 0 -1.502974E-08
vn 0.9659259 0 -0.2588188
vn 0.8660256 0 -0.4999997
vn 0.7071071 0 -0.7071065
vn -0.1950898 0 -0.9807854
vn 0 -1 0
vn 0 1 0

usemtl ProBuilderDefault
f 3/55/23 1/56/23 5/57/23
f 5/57/23 1/56/23 7/61/23
f 7/61/23 1/56/23 9/63/23
f 9/63/23 1/56/23 11/65/23
f 11/65/23 1/56/23 13/67/23
f 13/67/23 1/56/23 15/69/23
f 15/69/23 1/56/23 17/71/23
f 17/71/23 1/56/23 19/73/23
f 19/73/23 1/56/23 21/75/23
f 21/75/23 1/56/23 23/77/23
f 23/77/23 1/56/23 25/79/23
f 25/79/23 1/56/23 27/81/23
f 27/81/23 1/56/23 29/83/23
f 29/83/23 1/56/23 31/85/23
f 31/85/23 1/56/23 33/87/23
f 33/87/23 1/56/23 35/89/23
f 35/89/23 1/56/23 37/91/23
f 37/91/23 1/56/23 39/93/23
f 39/93/23 1/56/23 41/95/23
f 41/95/23 1/56/23 43/97/23
f 6/60/24 2/59/24 4/58/24
f 8/62/24 2/59/24 6/60/24
f 10/64/24 2/59/24 8/62/24
f 12/66/24 2/59/24 10/64/24
f 14/68/24 2/59/24 12/66/24
f 16/70/24 2/59/24 14/68/24
f 18/72/24 2/59/24 16/70/24
f 20/74/24 2/59/24 18/72/24
f 22/76/24 2/59/24 20/74/24
f 24/78/24 2/59/24 22/76/24
f 26/80/24 2/59/24 24/78/24
f 28/82/24 2/59/24 26/80/24
f 30/84/24 2/59/24 28/82/24
f 32/86/24 2/59/24 30/84/24
f 34/88/24 2/59/24 32/86/24
f 36/90/24 2/59/24 34/88/24
f 38/92/24 2/59/24 36/90/24
f 40/94/24 2/59/24 38/92/24
f 42/96/24 2/59/24 40/94/24
f 44/98/24 2/59/24 42/96/24
f 4/4/2 2/2/1 1/1/1
f 1/1/1 3/3/2 4/4/2
f 6/8/3 4/6/2 3/5/2
f 3/5/2 5/7/3 6/8/3
f 8/12/4 6/10/3 5/9/3
f 5/9/3 7/11/4 8/12/4
f 10/16/5 8/14/4 7/13/4
f 7/13/4 9/15/5 10/16/5
f 12/20/6 10/18/5 9/17/5
f 9/17/5 11/19/6 12/20/6
f 14/20/7 12/18/6 11/17/6
f 11/17/6 13/19/7 14/20/7
f 16/16/8 14/14/7 13/13/7
f 13/13/7 15/15/8 16/16/8
f 18/12/9 16/10/8 15/9/8
f 15/9/8 17/11/9 18/12/9
f 20/8/10 18/6/9 17/5/9
f 17/5/9 19/7/10 20/8/10
f 22/24/11 20/22/10 19/21/10
f 19/21/10 21/23/11 22/24/11
f 24/28/12 22/26/11 21/25/11
f 21/25/11 23/27/12 24/28/12
f 26/26/13 24/30/12 23/29/12
f 23/29/12 25/25/13 26/26/13
f 28/34/14 26/32/13 25/31/13
f 25/31/13 27/33/14 28/34/14
f 30/38/15 28/36/14 27/35/14
f 27/35/14 29/37/15 30/38/15
f 32/42/16 30/40/15 29/39/15
f 29/39/15 31/41/16 32/42/16
f 34/46/17 32/44/16 31/43/16
f 31/43/16 33/45/17 34/46/17
f 36/50/18 34/48/17 33/47/17
f 33/47/17 35/49/18 36/50/18
f 38/50/19 36/48/18 35/47/18
f 35/47/18 37/49/19 38/50/19
f 40/46/20 38/44/19 37/43/19
f 37/43/19 39/45/20 40/46/20
f 42/42/21 40/40/20 39/39/20
f 39/39/20 41/41/21 42/42/21
f 44/38/22 42/36/21 41/35/21
f 41/35/21 43/37/22 44/38/22
f 2/54/1 44/52/22 43/51/22
f 43/51/22 1/53/1 2/54/1

