# ProBuilder 4.2.3
# https://unity3d.com/unity/features/worldbuilding/probuilder
# 4/8/2020 5:31:16 PM

mtllib ./WholeCake90-2Collider.mtl
o WholeCake90-2Collider

g WholeCake90-2Collider
v 0 0 0
v 0 2.5 0
v -2 0 -3.464102
v -2 2.5 -3.464102
v -2.828427 0 -2.828428
v -2.828427 2.5 -2.828428
v -3.464102 0 -2.000001
v -3.464102 2.5 -2.000001
v -3.863704 0 -1.035277
v -3.863704 2.5 -1.035277
v -4 0 -4.768372E-07
v -4 2.5 -4.768372E-07
v -3.863704 0 1.035276
v -3.863704 2.5 1.035276
v -3.464102 0 2
v -3.464102 2.5 2
v -2.828428 0 2.828427
v -2.828428 2.5 2.828427
v -2.000001 0 3.464102
v -2.000001 2.5 3.464102
v -1.035277 0 3.863703
v -1.035277 2.5 3.863703
v -1.27146E-07 0 4
v -1.27146E-07 2.5 4
v 1.035276 0 3.863704
v 1.035276 2.5 3.863704
v 2 0 3.464102
v 2 2.5 3.464102

vt -3.464102 0
vt -3.464102 2.5
vt 0.5358984 0
vt 0.5358984 2.5
vt 1.912941 0
vt 1.912941 2.5
vt 2.957151 0
vt 2.957151 2.5
vt 2.651309 0
vt 2.651309 2.5
vt 3.695518 0
vt 3.695518 2.5
vt 3.173413 0
vt 3.173413 2.5
vt 4.217623 0
vt 4.217623 2.5
vt 3.443675 0
vt 3.443675 2.5
vt 4.487885 0
vt 4.487885 2.5
vt 1.008628 0
vt 1.008628 2.5
vt 2.052837 0
vt 2.052837 2.5
vt -6.719059E-07 0
vt -6.719059E-07 2.5
vt 1.04421 0
vt 1.04421 2.5
vt -1.04421 0
vt -1.04421 2.5
vt -2.052838 0
vt -2.052838 2.5
vt -1.008628 0
vt -1.008628 2.5
vt -2.957151 0
vt -2.957151 2.5
vt 0.5358984 2
vt 1.171573 2.828427
vt -0.5358984 2
vt -1.171573 2.828427
vt 2 3.464102
vt -2 3.464102
vt 2.964724 3.863703
vt -2.964724 3.863703
vt 4 4
vt -4 4
vt 5.035276 3.863703
vt -5.035276 3.863703
vt 6 3.464102
vt -6 3.464102
vt 6.828427 2.828427
vt -6.828427 2.828427
vt 7.464102 2
vt -7.464102 2
vt 7.863703 1.035277
vt -7.863703 1.035277
vt 8 -3.496911E-07
vt -8 -3.496911E-07
vt 7.863703 -1.035276
vt -7.863703 -1.035276
vt 7.464102 -2
vt -7.464102 -2

vn 0.8660254 0 -0.4999999
vn 0.1950903 0 -0.9807853
vn -0.7071066 0 -0.7071069
vn -0.8660253 0 -0.5000002
vn -0.9659258 0 -0.2588191
vn -1 0 0
vn -0.9659258 0 0.258819
vn -0.8660254 0 0.4999999
vn -0.7071071 0 0.7071065
vn -0.5000002 0 0.8660253
vn -0.258819 0 0.9659258
vn -6.011897E-08 0 1
vn 0.258819 0 0.9659258
vn 0.9469301 0 0.3214396
vn 0 -1 0
vn 0 1 0

usemtl ProBuilderDefault
f 3/37/15 1/1/15 5/38/15
f 5/38/15 1/1/15 7/41/15
f 7/41/15 1/1/15 9/43/15
f 9/43/15 1/1/15 11/45/15
f 11/45/15 1/1/15 13/47/15
f 13/47/15 1/1/15 15/49/15
f 15/49/15 1/1/15 17/51/15
f 17/51/15 1/1/15 19/53/15
f 19/53/15 1/1/15 21/55/15
f 21/55/15 1/1/15 23/57/15
f 23/57/15 1/1/15 25/59/15
f 25/59/15 1/1/15 27/61/15
f 6/40/16 2/2/16 4/39/16
f 8/42/16 2/2/16 6/40/16
f 10/44/16 2/2/16 8/42/16
f 12/46/16 2/2/16 10/44/16
f 14/48/16 2/2/16 12/46/16
f 16/50/16 2/2/16 14/48/16
f 18/52/16 2/2/16 16/50/16
f 20/54/16 2/2/16 18/52/16
f 22/56/16 2/2/16 20/54/16
f 24/58/16 2/2/16 22/56/16
f 26/60/16 2/2/16 24/58/16
f 28/62/16 2/2/16 26/60/16
f 4/4/2 2/2/1 1/1/1
f 1/1/1 3/3/2 4/4/2
f 6/8/3 4/6/2 3/5/2
f 3/5/2 5/7/3 6/8/3
f 8/12/4 6/10/3 5/9/3
f 5/9/3 7/11/4 8/12/4
f 10/16/5 8/14/4 7/13/4
f 7/13/4 9/15/5 10/16/5
f 12/20/6 10/18/5 9/17/5
f 9/17/5 11/19/6 12/20/6
f 14/20/7 12/18/6 11/17/6
f 11/17/6 13/19/7 14/20/7
f 16/16/8 14/14/7 13/13/7
f 13/13/7 15/15/8 16/16/8
f 18/12/9 16/10/8 15/9/8
f 15/9/8 17/11/9 18/12/9
f 20/8/10 18/6/9 17/5/9
f 17/5/9 19/7/10 20/8/10
f 22/24/11 20/22/10 19/21/10
f 19/21/10 21/23/11 22/24/11
f 24/28/12 22/26/11 21/25/11
f 21/25/11 23/27/12 24/28/12
f 26/26/13 24/30/12 23/29/12
f 23/29/12 25/25/13 26/26/13
f 28/34/14 26/32/13 25/31/13
f 25/31/13 27/33/14 28/34/14
f 2/2/1 28/36/14 27/35/14
f 27/35/14 1/1/1 2/2/1

