# ProBuilder 4.2.3
# https://unity3d.com/unity/features/worldbuilding/probuilder
# 4/8/2020 5:31:09 PM

mtllib ./WholeCake90-1Collider.mtl
o WholeCake90-1Collider

g WholeCake90-1Collider
v 0 0 0
v 0 2.5 0
v -2.000001 0 3.464102
v -2.000001 2.5 3.464102
v -1.035277 0 3.863703
v -1.035277 2.5 3.863703
v -1.27146E-07 0 4
v -1.27146E-07 2.5 4
v 1.035276 0 3.863704
v 1.035276 2.5 3.863704
v 2 0 3.464102
v 2 2.5 3.464102
v 2.828427 0 2.828428
v 2.828427 2.5 2.828428
v 3.464102 0 2
v 3.464102 2.5 2
v 3.863704 0 1.035277
v 3.863704 2.5 1.035277
v 4 0 4.768372E-07
v 4 2.5 4.768372E-07
v 3.863704 0 -1.035275
v 3.863704 2.5 -1.035275
v 3.464103 0 -2
v 3.464103 2.5 -2
v 2.828428 0 -2.828427
v 2.828428 2.5 -2.828427
v 2.000001 0 -3.464102
v 2.000001 2.5 -3.464102

vt 3.464101 0
vt 3.464101 2.5
vt 2.957151 0
vt 2.957151 2.5
vt 1.008628 0
vt 1.008628 2.5
vt 2.052837 0
vt 2.052837 2.5
vt -6.719059E-07 0
vt -6.719059E-07 2.5
vt 1.04421 0
vt 1.04421 2.5
vt -1.04421 0
vt -1.04421 2.5
vt -2.052838 0
vt -2.052838 2.5
vt -1.008628 0
vt -1.008628 2.5
vt -2.957151 0
vt -2.957151 2.5
vt -1.912942 0
vt -1.912942 2.5
vt -3.695519 0
vt -3.695519 2.5
vt -2.651308 0
vt -2.651308 2.5
vt -4.217622 0
vt -4.217622 2.5
vt -3.173413 0
vt -3.173413 2.5
vt -4.487885 0
vt -4.487885 2.5
vt -3.443675 0
vt -3.443675 2.5
vt -0.5358989 0
vt -0.5358989 2.5
vt 7.464102 2
vt 7.863703 1.035277
vt -7.464102 2
vt -7.863703 1.035277
vt 8 -3.496911E-07
vt -8 -3.496911E-07
vt 7.863703 -1.035276
vt -7.863703 -1.035276
vt 7.464102 -2
vt -7.464102 -2
vt 6.828427 -2.828427
vt -6.828427 -2.828427
vt 6 -3.464102
vt -6 -3.464102
vt 5.035276 -3.863703
vt -5.035276 -3.863703
vt 4 -4
vt -4 -4
vt 2.964724 -3.863703
vt -2.964724 -3.863703
vt 2 -3.464102
vt -2 -3.464102
vt 1.171573 -2.828428
vt -1.171573 -2.828428
vt 0.5358987 -2.000001
vt -0.5358987 -2.000001

vn -0.8660253 0 -0.5000002
vn -0.9469301 0 0.3214396
vn -0.258819 0 0.9659258
vn -6.011897E-08 0 1
vn 0.258819 0 0.9659258
vn 0.4999999 0 0.8660255
vn 0.7071066 0 0.7071069
vn 0.8660253 0 0.5000002
vn 0.9659258 0 0.2588191
vn 1 0 -1.502974E-08
vn 0.9659259 0 -0.2588188
vn 0.8660256 0 -0.4999997
vn 0.7071071 0 -0.7071065
vn -0.1950898 0 -0.9807854
vn 0 -1 0
vn 0 1 0

usemtl ProBuilderDefault
f 3/37/15 1/1/15 5/38/15
f 5/38/15 1/1/15 7/41/15
f 7/41/15 1/1/15 9/43/15
f 9/43/15 1/1/15 11/45/15
f 11/45/15 1/1/15 13/47/15
f 13/47/15 1/1/15 15/49/15
f 15/49/15 1/1/15 17/51/15
f 17/51/15 1/1/15 19/53/15
f 19/53/15 1/1/15 21/55/15
f 21/55/15 1/1/15 23/57/15
f 23/57/15 1/1/15 25/59/15
f 25/59/15 1/1/15 27/61/15
f 6/40/16 2/2/16 4/39/16
f 8/42/16 2/2/16 6/40/16
f 10/44/16 2/2/16 8/42/16
f 12/46/16 2/2/16 10/44/16
f 14/48/16 2/2/16 12/46/16
f 16/50/16 2/2/16 14/48/16
f 18/52/16 2/2/16 16/50/16
f 20/54/16 2/2/16 18/52/16
f 22/56/16 2/2/16 20/54/16
f 24/58/16 2/2/16 22/56/16
f 26/60/16 2/2/16 24/58/16
f 28/62/16 2/2/16 26/60/16
f 4/4/2 2/2/1 1/1/1
f 1/1/1 3/3/2 4/4/2
f 6/8/3 4/6/2 3/5/2
f 3/5/2 5/7/3 6/8/3
f 8/12/4 6/10/3 5/9/3
f 5/9/3 7/11/4 8/12/4
f 10/10/5 8/14/4 7/13/4
f 7/13/4 9/9/5 10/10/5
f 12/18/6 10/16/5 9/15/5
f 9/15/5 11/17/6 12/18/6
f 14/22/7 12/20/6 11/19/6
f 11/19/6 13/21/7 14/22/7
f 16/26/8 14/24/7 13/23/7
f 13/23/7 15/25/8 16/26/8
f 18/30/9 16/28/8 15/27/8
f 15/27/8 17/29/9 18/30/9
f 20/34/10 18/32/9 17/31/9
f 17/31/9 19/33/10 20/34/10
f 22/34/11 20/32/10 19/31/10
f 19/31/10 21/33/11 22/34/11
f 24/30/12 22/28/11 21/27/11
f 21/27/11 23/29/12 24/30/12
f 26/26/13 24/24/12 23/23/12
f 23/23/12 25/25/13 26/26/13
f 28/22/14 26/20/13 25/19/13
f 25/19/13 27/21/14 28/22/14
f 2/2/1 28/36/14 27/35/14
f 27/35/14 1/1/1 2/2/1

